HIERARCHY
ROOT Hips
{
    OFFSET 0.000000 0.000000 0.000000
    CHANNELS 6 Xposition Yposition Zposition Zrotation Xrotation Yrotation
    JOINT Spine
    {
        OFFSET -0.000000 14.517291 0.000000
        CHANNELS 3 Zrotation Xrotation Yrotation
        JOINT Spine1
        {
            OFFSET -0.000000 37.558300 0.000000
            CHANNELS 3 Zrotation Xrotation Yrotation
            JOINT Neck
            {
                OFFSET -0.000000 37.404057 3.400369
                CHANNELS 3 Zrotation Xrotation Yrotation
                JOINT Head
                {
                    OFFSET -0.000000 24.785618 -3.540803
                    CHANNELS 3 Zrotation Xrotation Yrotation
                    End Site
                    {
                        OFFSET -0.000000 35.408028 0.000000
                    }
                }
            }
            JOINT LeftShoulder
            {
                OFFSET 6.992933 33.973492 -0.192664
                CHANNELS 3 Zrotation Xrotation Yrotation
                JOINT LeftArm
                {
                    OFFSET 21.527611 0.000000 0.000000
                    CHANNELS 3 Zrotation Xrotation Yrotation
                    JOINT LeftForeArm
                    {
                        OFFSET 56.353916 0.000000 0.000000
                        CHANNELS 3 Zrotation Xrotation Yrotation
                        JOINT LeftHand
                        {
                            OFFSET 47.774071 0.000000 0.000000
                            CHANNELS 3 Zrotation Xrotation Yrotation
                            End Site
                            {
                                OFFSET 26.556021 0.000000 0.000000
                            }
                        }
                    }
                }
            }
            JOINT RightShoulder
            {
                OFFSET -7.065357 33.973492 -0.192664
                CHANNELS 3 Zrotation Xrotation Yrotation
                JOINT RightArm
                {
                    OFFSET -21.527611 0.000000 0.000000
                    CHANNELS 3 Zrotation Xrotation Yrotation
                    JOINT RightForeArm
                    {
                        OFFSET -56.353916 0.000000 0.000000
                        CHANNELS 3 Zrotation Xrotation Yrotation
                        JOINT RightHand
                        {
                            OFFSET -47.774071 0.000000 0.000000
                            CHANNELS 3 Zrotation Xrotation Yrotation
                            End Site
                            {
                                OFFSET -26.556021 0.000000 0.000000
                            }
                        }
                    }
                }
            }
        }
    }
    JOINT LeftUpLeg
    {
        OFFSET 17.704014 0.000000 0.000000
        CHANNELS 3 Zrotation Xrotation Yrotation
        JOINT LeftLeg
        {
            OFFSET -0.000000 -81.181816 0.000000
            CHANNELS 3 Zrotation Xrotation Yrotation
            JOINT LeftFoot
            {
                OFFSET -0.000000 -62.821102 0.000000
                CHANNELS 3 Zrotation Xrotation Yrotation
                JOINT LeftToeBase
                {
                    OFFSET -0.000000 -11.507608 26.556021
                    CHANNELS 3 Zrotation Xrotation Yrotation
                    End Site
                    {
                        OFFSET -0.000000 0.000000 7.081605
                    }
                }
            }
        }
    }
    JOINT RightUpLeg
    {
        OFFSET -17.704014 0.000000 0.000000
        CHANNELS 3 Zrotation Xrotation Yrotation
        JOINT RightLeg
        {
            OFFSET -0.000000 -81.181816 0.000000
            CHANNELS 3 Zrotation Xrotation Yrotation
            JOINT RightFoot
            {
                OFFSET -0.000000 -62.821102 0.000000
                CHANNELS 3 Zrotation Xrotation Yrotation
                JOINT RightToeBase
                {
                    OFFSET -0.000000 -11.507608 26.556021
                    CHANNELS 3 Zrotation Xrotation Yrotation
                    End Site
                    {
                        OFFSET -0.000000 0.000000 7.081605
                    }
                }
            }
        }
    }
}
MOTION
Frames:    9
Frame Time:    0.008333
-2.956914    157.696503    -24.198957    -0.633052    -3.307230    -32.667229    4.337418    -1.243309    2.409422    -3.513293    2.819221    0.872150    16.115824    1.561856    12.119033    -8.209957    3.800336    9.539910    -0.064008    9.591940    -11.229349    -38.822578    7.421560    -40.516682    32.080307    -42.791534    -45.996639    -20.399544    -27.055063    -28.602140    -6.560594    5.207102    -2.429618    33.068878    4.072489    63.459999    20.909494    -8.690756    87.883064    16.211542    -24.969357    24.339220    14.870400    -13.727174    4.425724    -10.625964    14.632790    -0.364082    -5.816404    1.821878    33.575535    0.000000    0.000000    0.000000    -11.240779    3.440537    -7.950741    5.846169    25.682301    -1.408735    3.740580    -22.013350    -14.702143    0.000000    0.000000    0.000000    
-2.948752    157.738037    -24.190273    -0.619095    -3.289084    -32.685188    4.340789    -1.268428    2.410519    -3.510454    2.816618    0.872080    16.112940    1.560526    12.124866    -8.222119    3.818268    9.546170    -0.061087    9.590095    -11.220479    -38.827263    7.464505    -40.530590    32.154900    -42.804646    -45.940186    -20.414242    -27.054649    -28.597631    -6.528910    5.264362    -2.446743    33.188408    4.274702    63.574417    20.686455    -8.759831    87.943207    16.081408    -24.882975    24.248007    14.834553    -13.671250    4.415474    -10.567904    14.479896    -0.381478    -5.846477    1.895011    33.594955    0.000000    0.000000    0.000000    -11.227039    3.465317    -7.950902    5.780899    25.566732    -1.336153    3.791230    -21.934410    -14.689094    0.000000    0.000000    0.000000    
-2.941323    157.771591    -24.183516    -0.603675    -3.268117    -32.700890    4.337795    -1.284770    2.410329    -3.492684    2.798446    0.870783    16.094570    1.562683    12.125532    -8.235190    3.822845    9.548611    -0.080668    9.579749    -11.214932    -38.813263    7.522232    -40.522896    32.225380    -42.839928    -45.891804    -20.437424    -27.075853    -28.607925    -6.511279    5.320140    -2.461714    33.292377    4.485647    63.672901    20.457302    -8.830661    88.034706    15.960035    -24.798887    24.169624    14.803764    -13.622090    4.399768    -10.523144    14.329893    -0.369655    -5.856857    1.965844    33.600208    0.000000    0.000000    0.000000    -11.213153    3.485087    -7.961311    5.746784    25.447214    -1.319857    3.797991    -21.871967    -14.684585    0.000000    0.000000    0.000000    
-2.934808    157.806992    -24.175718    -0.593666    -3.254879    -32.718086    4.340656    -1.299759    2.404570    -3.487483    2.795853    0.868494    16.088751    1.561994    12.136179    -8.252082    3.825555    9.558829    -0.084237    9.565623    -11.204482    -38.829655    7.540451    -40.516861    32.251968    -42.848888    -45.880138    -20.450439    -27.072056    -28.632488    -6.490263    5.357317    -2.460206    33.413021    4.673765    63.766376    20.213486    -8.859513    88.100029    15.857402    -24.654385    24.055122    14.771273    -13.562291    4.377356    -10.474304    14.174459    -0.365561    -5.884111    2.044225    33.626694    0.000000    0.000000    0.000000    -11.200190    3.519012    -7.939810    5.753057    25.306675    -1.377648    3.766454    -21.793060    -14.694076    0.000000    0.000000    0.000000    
-2.929074    157.836700    -24.164579    -0.587223    -3.248630    -32.734222    4.340489    -1.307462    2.402014    -3.475916    2.791810    0.867117    16.085001    1.573407    12.144943    -8.278048    3.808380    9.566099    -0.097850    9.556786    -11.197353    -38.822521    7.567677    -40.513699    32.280872    -42.868008    -45.862000    -20.445677    -27.089153    -28.637667    -6.461473    5.402290    -2.466494    33.523815    4.854026    63.875854    19.987385    -8.914364    88.156700    15.745979    -24.549723    23.933479    14.742368    -13.501467    4.377370    -10.430986    14.044737    -0.394024    -5.906523    2.089961    33.658726    0.000000    0.000000    0.000000    -11.193819    3.566301    -7.905756    5.759418    25.058584    -1.405990    3.745295    -21.634418    -14.709152    0.000000    0.000000    0.000000    
-2.924356    157.863876    -24.157518    -0.581620    -3.234870    -32.745285    4.349321    -1.310143    2.397204    -3.475912    2.778188    0.865088    16.088545    1.570937    12.159362    -8.302083    3.803807    9.577352    -0.100780    9.537244    -11.191707    -38.843868    7.573215    -40.502197    32.264801    -42.873478    -45.888992    -20.429291    -27.098404    -28.635311    -6.430258    5.449948    -2.474962    33.621265    5.037865    63.965874    19.794159    -8.982806    88.253807    15.707524    -24.483116    23.836761    14.719404    -13.449087    4.369463    -10.389335    13.909761    -0.400664    -5.926976    2.150473    33.678371    0.000000    0.000000    0.000000    -11.178523    3.598436    -7.903783    5.702936    24.960772    -1.321545    3.785473    -21.591511    -14.705366    0.000000    0.000000    0.000000    
-2.919449    157.888443    -24.153536    -0.576734    -3.222419    -32.762264    4.350010    -1.311073    2.399599    -3.460491    2.765147    0.865075    16.095072    1.578133    12.166553    -8.343085    3.786283    9.579285    -0.107832    9.526729    -11.198487    -38.871223    7.549432    -40.488136    32.234875    -42.859234    -45.925850    -20.406212    -27.088692    -28.628756    -6.404272    5.498002    -2.485004    33.747131    5.175676    64.061249    19.657976    -8.975549    88.318352    15.685508    -24.376686    23.811924    14.701560    -13.399821    4.371662    -10.350280    13.788188    -0.409655    -5.943724    2.200938    33.691368    0.000000    0.000000    0.000000    -11.166018    3.634590    -7.912238    5.679482    24.838400    -1.286459    3.773189    -21.545097    -14.721273    0.000000    0.000000    0.000000    
-2.913096    157.913300    -24.148005    -0.571025    -3.211194    -32.772602    4.349425    -1.315140    2.393528    -3.443538    2.754268    0.862259    16.100279    1.589455    12.176974    -8.380943    3.766959    9.585564    -0.121327    9.520844    -11.193712    -38.874920    7.562728    -40.485676    32.258938    -42.876873    -45.907177    -20.427868    -27.097103    -28.650539    -6.382570    5.554014    -2.487283    33.863380    5.337372    64.176811    19.491648    -9.008996    88.395454    15.553392    -24.314634    23.710726    14.678988    -13.353123    4.357917    -10.311254    13.666286    -0.413990    -5.960871    2.261054    33.700359    0.000000    0.000000    0.000000    -11.153192    3.671000    -7.894334    5.665764    24.717793    -1.294213    3.828879    -21.528141    -14.758174    0.000000    0.000000    0.000000    
-2.912857    157.934662    -24.142412    -0.571413    -3.197497    -32.782814    4.359288    -1.319842    2.386657    -3.439089    2.752933    0.859752    16.092813    1.575822    12.182967    -8.386238    3.757184    9.589587    -0.121879    9.507451    -11.183284    -38.882969    7.571573    -40.483616    32.248680    -42.890755    -45.918324    -20.399521    -27.124731    -28.631399    -6.348962    5.594832    -2.489011    33.972984    5.483245    64.274254    19.370224    -9.033017    88.469414    15.463535    -24.272861    23.637407    14.671865    -13.308474    4.334219    -10.294244    13.552907    -0.400300    -5.966609    2.304764    33.717365    0.000000    0.000000    0.000000    -11.136120    3.705038    -7.878853    5.657411    24.612995    -1.289833    3.772598    -21.452642    -14.727603    0.000000    0.000000    0.000000    
